<svg preserveAspectRatio="none" overflow="visible" style="display: block;" width="12" height="13.3333" viewBox="0 0 12 13.3333" fill="none" xmlns="http://www.w3.org/2000/svg">
<g id="Container">
<path id="Icon" d="M7.66667 10.6667C7.2 10.6667 6.80556 10.5056 6.48333 10.1833C6.16111 9.86111 6 9.46667 6 9C6 8.53333 6.16111 8.13889 6.48333 7.81667C6.80556 7.49444 7.2 7.33333 7.66667 7.33333C8.13333 7.33333 8.52778 7.49444 8.85 7.81667C9.17222 8.13889 9.33333 8.53333 9.33333 9C9.33333 9.46667 9.17222 9.86111 8.85 10.1833C8.52778 10.5056 8.13333 10.6667 7.66667 10.6667V10.6667M1.33333 13.3333C0.966667 13.3333 0.652778 13.2028 0.391667 12.9417C0.130556 12.6806 0 12.3667 0 12V2.66667C0 2.3 0.130556 1.98611 0.391667 1.725C0.652778 1.46389 0.966667 1.33333 1.33333 1.33333H2V0H3.33333V1.33333H8.66667V0H10V1.33333H10.6667C11.0333 1.33333 11.3472 1.46389 11.6083 1.725C11.8694 1.98611 12 2.3 12 2.66667V12C12 12.3667 11.8694 12.6806 11.6083 12.9417C11.3472 13.2028 11.0333 13.3333 10.6667 13.3333H1.33333V13.3333M1.33333 12H10.6667V12V12V5.33333H1.33333V12V12V12V12M1.33333 4H10.6667V2.66667V2.66667V2.66667H1.33333V2.66667V2.66667V4V4M1.33333 4V2.66667V2.66667V2.66667V2.66667V2.66667V2.66667V4V4V4" fill="#202522"/>
</g>
</svg>
